<?xml version="1.0" encoding="UTF-8"?>
<svg xmlns="http://www.w3.org/2000/svg" xmlns:xlink="http://www.w3.org/1999/xlink" width="24px" height="24px" viewBox="0 0 24 24" version="1.1">
<g id="surface1">
<path style="fill:none;stroke-width:1.5;stroke-linecap:butt;stroke-linejoin:miter;stroke:rgb(10.980392%,15.294118%,29.803922%);stroke-opacity:1;stroke-miterlimit:4;" d="M 9.152344 5.410156 C 10.417969 3.136719 11.054688 2 12 2 C 12.945312 2 13.582031 3.136719 14.847656 5.410156 L 15.175781 5.996094 C 15.535156 6.640625 15.714844 6.964844 15.996094 7.179688 C 16.277344 7.390625 16.625 7.46875 17.324219 7.628906 L 17.960938 7.773438 C 20.421875 8.328125 21.648438 8.605469 21.941406 9.546875 C 22.234375 10.488281 21.398438 11.46875 19.71875 13.429688 L 19.285156 13.9375 C 18.808594 14.496094 18.570312 14.773438 18.464844 15.117188 C 18.355469 15.460938 18.394531 15.835938 18.464844 16.578125 L 18.53125 17.253906 C 18.785156 19.871094 18.910156 21.179688 18.144531 21.761719 C 17.378906 22.339844 16.226562 21.8125 13.925781 20.75 L 13.328125 20.476562 C 12.675781 20.175781 12.347656 20.023438 12 20.023438 C 11.652344 20.023438 11.324219 20.175781 10.671875 20.476562 L 10.074219 20.75 C 7.773438 21.8125 6.621094 22.339844 5.855469 21.761719 C 5.089844 21.179688 5.214844 19.871094 5.46875 17.253906 L 5.535156 16.578125 C 5.605469 15.835938 5.644531 15.460938 5.535156 15.117188 C 5.429688 14.773438 5.191406 14.496094 4.714844 13.9375 L 4.28125 13.429688 C 2.601562 11.46875 1.765625 10.488281 2.058594 9.546875 C 2.351562 8.605469 3.578125 8.328125 6.039062 7.773438 L 6.675781 7.628906 C 7.375 7.46875 7.722656 7.390625 8.003906 7.179688 C 8.285156 6.964844 8.464844 6.640625 8.824219 5.996094 Z M 9.152344 5.410156 "/>
</g>
</svg>
